# Blender v2.73 (sub 0) OBJ File: ''
# www.blender.org
o Plane.044
v 8.000000 7.999980 56.000000
v 24.000000 7.999980 56.000000
v 24.000000 7.999968 72.000000
v 8.000000 7.999968 72.000000
v 32.000000 8.000023 -64.000000
v 48.000000 8.000023 -64.000000
v 48.000000 8.000013 -48.000000
v 32.000000 8.000013 -48.000000
v 24.000000 8.000034 -80.000000
v 40.000000 8.000034 -80.000000
v 40.000000 8.000024 -64.000000
v 24.000000 8.000024 -64.000000
v 32.000000 8.000017 -31.999994
v 48.000000 8.000017 -31.999994
v 48.000000 8.000009 -15.999996
v 32.000000 8.000009 -15.999996
v 40.000000 8.000002 16.000006
v 56.000000 8.000002 16.000006
v 56.000000 7.999993 32.000000
v 40.000000 7.999993 32.000000
v -56.000000 8.000002 0.000003
v -40.000000 8.000002 0.000003
v -40.000000 7.999994 16.000004
v -56.000000 7.999994 16.000004
v -64.000000 7.999984 56.000000
v -48.000000 7.999984 56.000000
v -48.000000 7.999974 72.000000
v -64.000000 7.999974 72.000000
v -56.000000 8.000008 -31.999996
v -40.000000 8.000008 -31.999996
v -40.000000 7.999996 -15.999996
v -56.000000 7.999996 -15.999996
v 48.000000 7.999992 32.000000
v 64.000000 7.999992 32.000000
v 64.000000 7.999982 48.000000
v 48.000000 7.999982 48.000000
v -72.000000 8.000000 8.000003
v -56.000000 8.000000 8.000003
v -56.000000 7.999990 24.000006
v -72.000000 7.999990 24.000006
v -64.000000 8.000012 -15.999996
v -48.000000 8.000012 -15.999996
v -48.000000 8.000003 0.000003
v -64.000000 8.000003 0.000003
v -16.000000 7.999986 48.000000
v 0.000000 7.999986 48.000000
v 0.000000 7.999978 64.000000
v -16.000000 7.999978 64.000000
v -56.000000 7.999998 32.000000
v -40.000000 7.999998 32.000000
v -40.000000 7.999988 48.000000
v -56.000000 7.999988 48.000000
v -80.000000 8.000015 -40.000000
v -64.000000 8.000015 -40.000000
v -64.000000 8.000006 -23.999994
v -80.000000 8.000006 -23.999994
v -48.000000 7.999994 16.000004
v -32.000000 7.999994 16.000004
v -32.000000 7.999982 32.000000
v -48.000000 7.999982 32.000000
v 56.000000 7.999982 48.000000
v 72.000000 7.999982 48.000000
v 72.000000 7.999970 64.000000
v 56.000000 7.999970 64.000000
v -16.000000 8.000021 -56.000000
v 0.000000 8.000021 -56.000000
v 0.000000 8.000011 -40.000000
v -16.000000 8.000011 -40.000000
v 40.000000 8.000008 -15.999996
v 56.000000 8.000008 -15.999996
v 56.000000 7.999998 0.000003
v 40.000000 7.999998 0.000003
v -16.000000 8.000015 -23.999994
v 0.000000 8.000015 -23.999994
v 0.000000 8.000005 -7.999997
v -16.000000 8.000005 -7.999997
v 0.000000 7.999989 40.000000
v 16.000000 7.999989 40.000000
v 16.000000 7.999980 56.000000
v 0.000000 7.999980 56.000000
v 8.000000 8.000009 -15.999997
v 24.000000 8.000009 -15.999997
v 24.000000 7.999997 0.000003
v 8.000000 7.999997 0.000003
v -8.000000 8.000000 24.000006
v 8.000000 8.000000 24.000006
v 8.000000 7.999990 40.000000
v -8.000000 7.999990 40.000000
v 0.000000 7.999996 8.000003
v 16.000000 7.999996 8.000003
v 16.000000 7.999984 24.000006
v 0.000000 7.999984 24.000006
v 16.000000 7.999993 32.000000
v 32.000000 7.999993 32.000000
v 32.000000 7.999982 48.000000
v 16.000000 7.999982 48.000000
v -32.000000 8.000017 -48.000000
v -16.000000 8.000017 -48.000000
v -16.000000 8.000008 -31.999994
v -32.000000 8.000008 -31.999994
v 0.000000 8.000024 -64.000000
v 16.000000 8.000024 -64.000000
v 16.000000 8.000012 -48.000000
v 0.000000 8.000012 -48.000000
v 24.000000 8.000004 -7.999997
v 40.000000 8.000004 -7.999997
v 40.000000 7.999996 8.000004
v 24.000000 7.999996 8.000004
v -8.000000 8.000011 -40.000000
v 8.000000 8.000011 -40.000000
v 8.000000 8.000000 -23.999994
v -8.000000 8.000000 -23.999994
v 48.000000 7.999998 0.000003
v 64.000000 7.999998 0.000003
v 64.000000 7.999988 16.000006
v 48.000000 7.999988 16.000006
v -40.000000 7.999978 64.000000
v -24.000000 7.999978 64.000000
v -24.000000 7.999966 80.000000
v -40.000000 7.999966 80.000000
v -48.000000 8.000022 -56.000000
v -32.000000 8.000022 -56.000000
v -32.000000 8.000010 -40.000000
v -48.000000 8.000010 -40.000000
v 32.000000 7.999989 40.000000
v 48.000000 7.999989 40.000000
v 48.000000 7.999980 56.000000
v 32.000000 7.999980 56.000000
v -24.000000 8.000031 -72.000000
v -8.000000 8.000031 -72.000000
v -8.000000 8.000022 -56.000000
v -24.000000 8.000022 -56.000000
v -32.000000 7.999990 40.000000
v -16.000000 7.999990 40.000000
v -16.000000 7.999979 56.000000
v -32.000000 7.999979 56.000000
v -8.000000 8.000004 -7.999997
v 8.000000 8.000004 -7.999997
v 8.000000 7.999996 8.000003
v -8.000000 7.999996 8.000003
v 40.000000 8.000013 -48.000000
v 56.000000 8.000013 -48.000000
v 56.000000 8.000002 -31.999994
v 40.000000 8.000002 -31.999994
v -48.000000 7.999986 48.000000
v -32.000000 7.999986 48.000000
v -32.000000 7.999978 64.000000
v -48.000000 7.999978 64.000000
v -24.000000 8.000002 0.000003
v -8.000000 8.000002 0.000003
v -8.000000 7.999994 16.000006
v -24.000000 7.999994 16.000006
v -72.000000 8.000029 -64.000000
v -56.000000 8.000029 -64.000000
v -56.000000 8.000017 -48.000000
v -72.000000 8.000017 -48.000000
v -64.000000 8.000017 -48.000000
v -48.000000 8.000017 -48.000000
v -48.000000 8.000008 -31.999996
v -64.000000 8.000008 -31.999996
v 16.000000 8.000021 -56.000000
v 32.000000 8.000021 -56.000000
v 32.000000 8.000011 -40.000000
v 16.000000 8.000011 -40.000000
v 56.000000 8.000010 -23.999996
v 72.000000 8.000010 -23.999996
v 72.000000 8.000000 -7.999997
v 56.000000 8.000000 -7.999997
v 48.000000 8.000026 -72.000000
v 64.000000 8.000026 -72.000000
v 64.000000 8.000016 -56.000000
v 48.000000 8.000016 -56.000000
v 64.000000 7.999995 24.000004
v 80.000000 7.999995 24.000004
v 80.000000 7.999983 40.000000
v 64.000000 7.999983 40.000000
v -40.000000 8.000005 -7.999997
v -24.000000 8.000005 -7.999997
v -24.000000 7.999995 8.000003
v -40.000000 7.999995 8.000003
vn 0.000000 -1.000000 -0.000000
s off
f 1//1 2//1 3//1 4//1
f 5//1 6//1 7//1 8//1
f 9//1 10//1 11//1 12//1
f 13//1 14//1 15//1 16//1
f 17//1 18//1 19//1 20//1
f 21//1 22//1 23//1 24//1
f 25//1 26//1 27//1 28//1
f 29//1 30//1 31//1 32//1
f 33//1 34//1 35//1 36//1
f 37//1 38//1 39//1 40//1
f 41//1 42//1 43//1 44//1
f 45//1 46//1 47//1 48//1
f 49//1 50//1 51//1 52//1
f 53//1 54//1 55//1 56//1
f 57//1 58//1 59//1 60//1
f 61//1 62//1 63//1 64//1
f 65//1 66//1 67//1 68//1
f 69//1 70//1 71//1 72//1
f 73//1 74//1 75//1 76//1
f 77//1 78//1 79//1 80//1
f 81//1 82//1 83//1 84//1
f 85//1 86//1 87//1 88//1
f 89//1 90//1 91//1 92//1
f 93//1 94//1 95//1 96//1
f 97//1 98//1 99//1 100//1
f 101//1 102//1 103//1 104//1
f 105//1 106//1 107//1 108//1
f 109//1 110//1 111//1 112//1
f 113//1 114//1 115//1 116//1
f 117//1 118//1 119//1 120//1
f 121//1 122//1 123//1 124//1
f 125//1 126//1 127//1 128//1
f 129//1 130//1 131//1 132//1
f 133//1 134//1 135//1 136//1
f 137//1 138//1 139//1 140//1
f 141//1 142//1 143//1 144//1
f 145//1 146//1 147//1 148//1
f 149//1 150//1 151//1 152//1
f 153//1 154//1 155//1 156//1
f 157//1 158//1 159//1 160//1
f 161//1 162//1 163//1 164//1
f 165//1 166//1 167//1 168//1
f 169//1 170//1 171//1 172//1
f 173//1 174//1 175//1 176//1
f 177//1 178//1 179//1 180//1
